<svg width="274" height="274" viewBox="0 0 274 274" fill="none" xmlns="http://www.w3.org/2000/svg">
<circle cx="137" cy="137" r="137" fill="white"/>
<path d="M65.72 137C65.72 137.064 65.848 137.021 66.104 136.872C66.36 136.701 66.584 136.381 66.776 135.912C66.9893 135.421 67.096 134.717 67.096 133.8V118.088C67.096 117.213 66.9893 116.552 66.776 116.104C66.584 115.635 66.36 115.315 66.104 115.144C65.848 114.973 65.72 114.92 65.72 114.984H77.304V118.184C76.92 116.904 75.768 116.264 73.848 116.264H69.4V125.352H74.904C75.3307 125.352 75.6933 125.288 75.992 125.16C76.2907 125.011 76.5147 124.861 76.664 124.712C76.8133 124.563 76.8987 124.467 76.92 124.424V127.528C76.8987 127.485 76.8133 127.389 76.664 127.24C76.5147 127.091 76.2907 126.952 75.992 126.824C75.7147 126.696 75.3627 126.632 74.936 126.632H69.4V135.72H74.392C75.352 135.72 76.1733 135.528 76.856 135.144C77.56 134.739 78.0613 134.227 78.36 133.608L77.784 137H65.72ZM98.0723 137C98.4563 136.936 98.6483 136.744 98.6483 136.424C98.6483 136.04 98.4883 135.613 98.1683 135.144C97.8483 134.653 97.6669 134.376 97.6243 134.312L93.1443 127.4L88.1203 134.12C87.8003 134.547 87.5443 134.931 87.3523 135.272C87.1816 135.592 87.0963 135.891 87.0963 136.168C87.0963 136.637 87.4376 136.915 88.1203 137H83.3203C83.3203 137.043 83.4483 136.989 83.7043 136.84C83.9603 136.691 84.3229 136.392 84.7923 135.944C85.2829 135.475 85.8696 134.781 86.5523 133.864L92.3763 126.152L87.2243 118.184C86.6269 117.267 86.0936 116.573 85.6243 116.104C85.1549 115.635 84.7709 115.325 84.4723 115.176C84.1736 115.005 84.0243 114.941 84.0243 114.984H89.3683C88.9629 115.069 88.7603 115.272 88.7603 115.592C88.7603 115.912 88.9949 116.435 89.4643 117.16L93.9123 124.072L98.5522 117.928C99.2136 117.053 99.5443 116.349 99.5443 115.816C99.5443 115.325 99.2243 115.048 98.5843 114.984H103.352C103.352 114.963 103.214 115.016 102.936 115.144C102.68 115.251 102.339 115.496 101.912 115.88C101.507 116.243 101.038 116.787 100.504 117.512L94.6803 125.288L99.8323 133.288C100.515 134.355 101.123 135.165 101.656 135.72C102.19 136.253 102.616 136.616 102.936 136.808C103.256 136.979 103.416 137.043 103.416 137H98.0723ZM123.075 120.936C123.075 122.173 122.776 123.283 122.179 124.264C121.603 125.224 120.771 125.981 119.683 126.536C118.595 127.091 117.315 127.368 115.843 127.368C114.947 127.368 113.987 127.272 112.963 127.08V134.056C112.963 134.888 113.069 135.528 113.283 135.976C113.496 136.403 113.731 136.691 113.987 136.84C114.243 136.989 114.371 137.043 114.371 137H109.283C109.283 137.043 109.411 136.989 109.667 136.84C109.923 136.691 110.147 136.403 110.339 135.976C110.552 135.549 110.659 134.909 110.659 134.056V118.024C110.659 117.171 110.552 116.52 110.339 116.072C110.147 115.624 109.923 115.325 109.667 115.176C109.411 115.005 109.283 114.941 109.283 114.984H115.555C116.643 114.984 117.539 115.059 118.243 115.208C118.947 115.336 119.565 115.539 120.099 115.816C121.059 116.307 121.795 117.021 122.307 117.96C122.819 118.877 123.075 119.869 123.075 120.936ZM120.611 121.352C120.611 119.837 120.141 118.611 119.203 117.672C118.264 116.733 117.016 116.264 115.459 116.264H112.963V125.832C113.88 126.003 114.84 126.088 115.843 126.088C117.336 126.088 118.499 125.661 119.331 124.808C120.184 123.933 120.611 122.781 120.611 121.352ZM130.19 117.96C130.19 117.107 130.083 116.467 129.87 116.04C129.678 115.592 129.454 115.293 129.198 115.144C128.942 114.995 128.814 114.941 128.814 114.984H133.902C133.902 114.941 133.774 114.995 133.518 115.144C133.262 115.293 133.027 115.592 132.814 116.04C132.6 116.467 132.494 117.107 132.494 117.96V135.72H137.742C138.702 135.72 139.523 135.528 140.206 135.144C140.91 134.739 141.411 134.227 141.71 133.608L141.134 137H128.814C128.814 137.064 128.942 137.021 129.198 136.872C129.454 136.701 129.678 136.381 129.87 135.912C130.083 135.421 130.19 134.717 130.19 133.8V117.96ZM145.829 126.248C145.829 123.987 146.309 121.971 147.269 120.2C148.251 118.429 149.616 117.053 151.365 116.072C153.136 115.091 155.173 114.6 157.477 114.6C159.397 114.6 161.189 115.027 162.853 115.88C164.539 116.712 165.883 117.971 166.885 119.656C167.909 121.341 168.421 123.368 168.421 125.736C168.421 127.997 167.931 130.013 166.949 131.784C165.989 133.555 164.624 134.931 162.853 135.912C161.104 136.893 159.077 137.384 156.773 137.384C154.853 137.384 153.051 136.968 151.365 136.136C149.701 135.283 148.357 134.013 147.333 132.328C146.331 130.643 145.829 128.616 145.829 126.248ZM165.861 126.216C165.861 124.275 165.456 122.525 164.645 120.968C163.856 119.389 162.757 118.163 161.349 117.288C159.963 116.392 158.395 115.944 156.645 115.944C155.045 115.944 153.616 116.349 152.357 117.16C151.12 117.971 150.149 119.123 149.445 120.616C148.741 122.088 148.389 123.805 148.389 125.768C148.389 127.709 148.784 129.469 149.573 131.048C150.384 132.605 151.483 133.832 152.869 134.728C154.277 135.603 155.856 136.04 157.605 136.04C159.205 136.04 160.624 135.635 161.861 134.824C163.12 134.013 164.101 132.872 164.805 131.4C165.509 129.907 165.861 128.179 165.861 126.216ZM181.121 125.928C182.102 125.928 182.955 125.704 183.681 125.256C184.406 124.787 184.95 124.189 185.313 123.464C185.697 122.717 185.889 121.939 185.889 121.128C185.889 120.296 185.707 119.517 185.345 118.792C185.003 118.045 184.47 117.437 183.745 116.968C183.019 116.499 182.134 116.264 181.089 116.264H178.369V134.056C178.369 134.909 178.475 135.56 178.689 136.008C178.902 136.435 179.137 136.723 179.393 136.872C179.649 137 179.777 137.043 179.777 137H174.689C174.689 137.043 174.817 136.989 175.073 136.84C175.329 136.691 175.553 136.403 175.745 135.976C175.958 135.549 176.065 134.909 176.065 134.056V118.056C176.065 117.181 175.958 116.52 175.745 116.072C175.553 115.603 175.329 115.293 175.073 115.144C174.817 114.973 174.689 114.92 174.689 114.984H181.025C182.689 114.984 184.054 115.261 185.121 115.816C186.209 116.349 186.987 117.053 187.457 117.928C187.947 118.781 188.193 119.72 188.193 120.744C188.193 121.597 187.99 122.44 187.585 123.272C187.179 124.083 186.593 124.797 185.825 125.416C185.078 126.013 184.203 126.429 183.201 126.664L182.689 126.76L188.321 133.928C189.067 134.76 189.686 135.4 190.177 135.848C190.667 136.296 191.019 136.595 191.233 136.744C191.467 136.893 191.606 136.979 191.649 137H187.905L179.201 125.928H181.121ZM196.533 137C196.533 137.064 196.661 137.021 196.917 136.872C197.173 136.701 197.397 136.381 197.589 135.912C197.802 135.421 197.909 134.717 197.909 133.8V118.088C197.909 117.213 197.802 116.552 197.589 116.104C197.397 115.635 197.173 115.315 196.917 115.144C196.661 114.973 196.533 114.92 196.533 114.984H208.117V118.184C207.733 116.904 206.581 116.264 204.661 116.264H200.213V125.352H205.717C206.143 125.352 206.506 125.288 206.805 125.16C207.103 125.011 207.327 124.861 207.477 124.712C207.626 124.563 207.711 124.467 207.733 124.424V127.528C207.711 127.485 207.626 127.389 207.477 127.24C207.327 127.091 207.103 126.952 206.805 126.824C206.527 126.696 206.175 126.632 205.749 126.632H200.213V135.72H205.205C206.165 135.72 206.986 135.528 207.669 135.144C208.373 134.739 208.874 134.227 209.173 133.608L208.597 137H196.533Z" fill="#0B0D17"/>
</svg>
